<svg width="449" height="116" viewBox="0 0 449 116" fill="none" xmlns="http://www.w3.org/2000/svg">
<path fill-rule="evenodd" clip-rule="evenodd" d="M60.3235 33.06C55.5941 33.06 51.0578 34.3167 47.0041 36.6367L47.8727 38.1833C51.6369 36.0567 55.9802 34.8967 60.3235 34.8V33.06ZM60.8061 98.2133V99.76C67.5623 99.76 74.222 97.9233 80.1096 94.54C83.0051 92.8967 85.6111 90.8667 88.0241 88.45L86.9624 87.3867C84.6459 89.61 82.1365 91.5433 79.3375 93.1867C73.6429 96.4733 67.2728 98.1167 60.8061 98.2133ZM75.9594 86.9033L77.4071 89.4167C79.7235 88.0633 81.9434 86.3233 83.8738 84.39L81.8469 82.36C80.1096 84.1 78.0827 85.6467 75.9594 86.9033ZM39.2827 82.36L37.2558 84.39C39.1862 86.3233 41.4061 87.9667 43.7225 89.4167L45.1702 86.9033C43.0469 85.6467 41.02 84.1 39.2827 82.36ZM84.2599 37.3133L82.233 39.3433C83.9703 41.0833 85.5146 43.1133 86.7693 45.24L89.2788 43.79C87.831 41.47 86.1902 39.2467 84.2599 37.3133ZM94.6838 40.6967L99.3166 37.99C97.3863 34.7033 95.0699 31.7067 92.4639 29.0967L88.6032 32.9633C90.9196 35.1867 92.9465 37.8933 94.6838 40.6967ZM94.8768 80.2333L99.5097 82.94C103.37 76.1733 105.397 68.6333 105.397 60.9H99.9922C99.9922 67.6667 98.2549 74.3367 94.8768 80.2333ZM80.4957 94.83L83.1982 99.47C86.4798 97.5367 89.4718 95.2167 92.0778 92.6067L88.2171 88.74C85.9972 91.1567 83.3912 93.1867 80.4957 94.83ZM45.5563 87.0967L44.1086 89.61C49.031 92.4133 54.629 93.8633 60.3235 93.96V91.06C55.1115 91.06 50.0926 89.7067 45.5563 87.0967ZM60.3235 30.2567V27.3567C54.629 27.3567 49.1275 28.9033 44.1086 31.7067L45.5563 34.22C50.0926 31.61 55.1115 30.2567 60.3235 30.2567ZM34.5533 75.4L36.0976 74.53C33.7812 70.3733 32.5264 65.7333 32.4299 60.9H30.5961C30.6926 66.0233 32.0438 70.9533 34.5533 75.4ZM34.1672 45.6266L31.6578 44.1766C28.8588 49.1066 27.411 54.7133 27.3145 60.4167H30.21C30.21 55.1967 31.5613 50.17 34.1672 45.6266ZM38.1245 47.9467L36.5802 47.0766C34.2638 51.1366 33.009 55.7767 33.009 60.4167H34.8429C34.8429 56.0667 35.9045 51.8133 38.1245 47.9467ZM38.5105 60.9H35.2289C35.2289 65.1533 36.3871 69.4066 38.5105 73.1766L41.3095 71.5333C39.4757 68.2467 38.5105 64.67 38.5105 60.9ZM83.8738 36.9266C81.9434 34.9933 79.7235 33.35 77.4071 31.9L75.9594 34.4133C78.0827 35.67 80.1096 37.2167 81.8469 38.9567L83.8738 36.9266ZM97.9654 60.4167H99.5097C99.5097 53.7467 97.7723 47.1733 94.3942 41.3733L93.043 42.1467C96.3246 47.7533 97.9654 54.0367 97.9654 60.4167ZM89.2788 77.5266L86.7693 76.0766C85.5146 78.2033 83.9703 80.2333 82.233 81.9733L84.2599 84.0033C86.1902 82.07 87.831 79.9433 89.2788 77.5266ZM87.2519 87L88.3136 88.0633C90.63 85.7433 92.5604 83.1333 94.2012 80.33L92.8499 79.5567C91.3057 82.36 89.3753 84.7767 87.2519 87ZM105.976 60.4167H115.918C115.918 50.8467 113.408 41.47 108.679 33.1567L100.089 38.1833C103.853 44.95 105.88 52.5867 105.976 60.4167ZM90.9196 60.4167H93.8151C93.8151 54.7133 92.2708 49.2033 89.4718 44.1766L86.9624 45.6266C89.5683 50.17 90.9196 55.1967 90.9196 60.4167ZM42.0817 93.2833L41.3095 94.6367C47.1006 97.9233 53.6638 99.6633 60.3235 99.76V98.2133C53.8568 98.1167 47.5832 96.4733 42.0817 93.2833ZM103.949 103.723L107.038 106.817C110.995 102.853 114.373 98.4067 117.172 93.67L113.408 91.4467C110.706 95.99 107.521 100.05 103.949 103.723ZM60.3235 4.73666V0C49.8031 0 39.5722 2.80332 30.4996 8.02332L32.9125 12.18C41.213 7.34666 50.6717 4.83333 60.3235 4.73666ZM60.3235 15.2733V5.21999C50.7683 5.21999 41.4061 7.73333 33.1055 12.47L38.1245 21.0733C44.8807 17.3033 52.5056 15.2733 60.3235 15.2733ZM60.3235 21.17V15.7567C52.6021 15.7567 45.0737 17.7867 38.3175 21.6533L41.02 26.2933C46.9076 22.91 53.5673 21.17 60.3235 21.17ZM38.1245 100.147L33.1055 108.75C41.4061 113.487 50.7683 116 60.3235 116V106.043C52.5056 106.043 44.8807 104.013 38.1245 100.147ZM103.563 17.2067L106.652 14.1133C102.695 10.15 98.2549 6.76666 93.5255 3.96332L91.3057 7.73333C95.7455 10.44 99.8957 13.63 103.563 17.2067ZM34.2637 87.3867L33.2021 88.45C35.5185 90.77 38.1245 92.7033 40.9235 94.3467L41.6956 92.9933C38.8966 91.4466 36.4837 89.5133 34.2637 87.3867ZM38.3175 99.76C45.0737 103.627 52.6021 105.657 60.3235 105.657V100.243C53.5673 100.243 46.9076 98.4067 41.02 95.12L38.3175 99.76ZM15.1533 60.4167C15.1533 52.5867 17.1801 44.95 21.1374 38.1833L12.5473 33.1567C7.81793 41.47 5.30847 50.8467 5.30847 60.4167H15.1533ZM4.72937 60.9H0C0 71.4367 2.79901 81.6833 8.01096 90.77L12.1612 88.3533C7.33534 80.04 4.82589 70.5667 4.72937 60.9ZM99.8957 20.9766L103.274 17.5933C99.6062 14.0167 95.5524 10.8267 91.1126 8.21667L88.6997 12.3733C92.7534 14.79 96.5176 17.69 99.8957 20.9766ZM100.185 100.05L103.563 103.433C107.135 99.76 110.32 95.7 112.926 91.2533L108.775 88.8367C106.362 92.8967 103.563 96.6667 100.185 100.05ZM32.816 32.5766C35.1324 30.2566 37.7384 28.2267 40.6339 26.5833L37.9314 21.9433C34.6498 23.8766 31.6578 26.1967 29.0518 28.8067L32.816 32.5766ZM27.9901 42.1467L26.6389 41.3733C23.3573 47.1733 21.6199 53.7467 21.5234 60.4167H23.0677C23.1642 54.0367 24.805 47.7533 27.9901 42.1467ZM92.8499 92.6067L99.8957 99.6633C103.177 96.3767 106.073 92.6067 108.389 88.5467L99.7992 83.52C97.7723 86.9033 95.4559 89.9 92.8499 92.6067ZM87.2519 34.3167C89.4718 36.54 91.3057 39.0533 92.9465 41.6633L94.2977 40.89C92.6569 38.0867 90.63 35.4767 88.4101 33.1567L87.2519 34.3167ZM86.8658 34.0266L87.9275 32.9633C85.6111 30.6433 83.0051 28.71 80.2061 27.0667L79.434 28.42C82.1365 29.87 84.6459 31.8033 86.8658 34.0266ZM79.241 28.71L77.6001 31.5133C80.0131 32.9633 82.233 34.6067 84.1634 36.6367L86.4798 34.3167C84.3564 32.19 81.9434 30.2566 79.241 28.71ZM83.1982 21.8467L80.4957 26.4867C83.2947 28.13 85.9972 30.16 88.3136 32.48L92.1743 28.6133C89.4718 26.1 86.4798 23.78 83.1982 21.8467ZM92.4639 28.3233L99.5097 21.2667C96.2281 17.98 92.4639 15.08 88.4101 12.76L83.3912 21.3633C86.7693 23.3933 89.7614 25.7133 92.4639 28.3233ZM60.8061 100.243V105.657C68.5275 105.657 76.0559 103.627 82.8121 99.76L80.1096 95.12C74.222 98.4067 67.5623 100.147 60.8061 100.243ZM94.6838 80.62C93.043 83.4233 91.0161 86.13 88.6997 88.45L92.5604 92.3167C95.1663 89.61 97.4828 86.6133 99.4131 83.4233L94.6838 80.62ZM94.8768 41.0833C98.2549 46.98 99.9922 53.65 99.9922 60.4167H105.397C105.397 52.6833 103.37 45.1433 99.5097 38.3766L94.8768 41.0833ZM80.1096 26.2933L82.8121 21.6533C76.0559 17.7867 68.5275 15.7567 60.8061 15.7567V21.17C67.5623 21.17 74.222 22.91 80.1096 26.2933ZM97.4828 60.4167C97.4828 54.0367 95.842 47.85 92.6569 42.34L89.8579 43.9833C92.7534 49.01 94.2012 54.6167 94.2977 60.4167H97.4828ZM92.6569 78.9766C95.842 73.4666 97.4828 67.28 97.4828 60.9H94.2012C94.2012 66.7 92.6569 72.3067 89.7614 77.3333L92.6569 78.9766ZM84.5494 84.39L86.8658 86.71C88.9892 84.4866 90.9196 82.07 92.4639 79.46L89.6648 77.8167C88.2171 80.1367 86.5763 82.36 84.5494 84.39ZM21.0408 60.9H15.6359C15.6359 68.6333 17.6627 76.1733 21.5234 82.94L26.1563 80.2333C22.8747 74.3367 21.1374 67.6667 21.0408 60.9ZM23.5503 60.9C23.5503 67.28 25.1911 73.4666 28.3762 78.9766L31.1752 77.3333C28.2797 72.3067 26.8319 66.7 26.7354 60.9H23.5503ZM35.2289 60.4167H38.5105C38.5105 56.6467 39.4757 53.07 41.3095 49.7833L38.5105 48.14C36.3871 51.91 35.3254 56.1633 35.2289 60.4167ZM41.8886 28.71C39.2827 30.2566 36.7732 32.19 34.6498 34.3167L36.9662 36.6367C38.9931 34.7033 41.213 32.9633 43.5294 31.5133L41.8886 28.71ZM42.2747 28.5167L43.9155 31.32C48.9344 28.42 54.5324 26.97 60.3235 26.8733V23.5867C53.9533 23.6833 47.7762 25.3267 42.2747 28.5167ZM60.3235 23.2V21.6533C53.6638 21.6533 47.1006 23.3933 41.3095 26.7766L42.0817 28.13C47.5832 24.8433 53.8568 23.2 60.3235 23.2ZM79.0479 28.0333L79.8201 26.68C74.029 23.3933 67.4658 21.6533 60.8061 21.5567V23.1033C67.2728 23.2 73.4499 24.8433 79.0479 28.0333ZM77.2141 31.32L78.8549 28.5167C73.3534 25.3267 67.1762 23.6833 60.8061 23.6833V26.97C66.5971 26.97 72.1952 28.42 77.2141 31.32ZM85.032 74.53L86.5763 75.4C89.0858 70.9533 90.437 66.0233 90.437 60.9H88.6032C88.6032 65.7333 87.3484 70.3733 85.032 74.53ZM86.3833 60.9C86.3833 65.25 85.225 69.6 83.0051 73.37L84.5494 74.24C86.8658 70.18 88.1206 65.54 88.1206 60.9H86.3833V60.9ZM84.5494 47.0766L83.0051 47.9467C85.1285 51.7167 86.2867 56.0667 86.3833 60.4167H88.2171C88.1206 55.7767 86.8658 51.1366 84.5494 47.0766ZM85.032 46.7867C87.3484 50.9433 88.6031 55.5833 88.6997 60.4167H90.5335C90.5335 55.2933 89.1823 50.3633 86.6728 45.9167L85.032 46.7867ZM84.7425 46.4L86.2867 45.53C85.032 43.4033 83.5843 41.47 81.8469 39.73L80.5922 40.9867C82.233 42.63 83.5843 44.4667 84.7425 46.4ZM82.8121 47.56L84.3564 46.69C83.1982 44.7567 81.8469 42.92 80.3027 41.3733L79.0479 42.63C80.3992 44.08 81.7504 45.7233 82.8121 47.56ZM78.6618 78.3967C80.1096 76.9467 81.3643 75.3033 82.426 73.5633L79.627 71.92C78.7584 73.4667 77.6002 74.82 76.4419 76.0766L78.6618 78.3967ZM73.4499 82.5533C75.1872 81.49 76.828 80.2333 78.2758 78.7833L75.9594 76.4633C74.7046 77.72 73.2569 78.7833 71.8091 79.6533L73.4499 82.5533ZM60.8061 82.7467V86.0333C65.0529 86.0333 69.2996 84.8733 73.0638 82.7467L71.423 79.9433C68.1414 81.78 64.5703 82.7467 60.8061 82.7467ZM48.0658 82.7467C51.83 84.8733 55.9802 85.9367 60.3235 86.0333V82.7467C56.5593 82.7467 52.9882 81.78 49.7066 79.9433L48.0658 82.7467ZM45.0737 76.4633L42.7573 78.7833C44.2051 80.2333 45.8459 81.49 47.5832 82.5533L49.224 79.75C47.7762 78.7833 46.425 77.72 45.0737 76.4633ZM82.6191 60.9C82.6191 64.67 81.6539 68.2467 79.8201 71.5333L82.6191 73.1766C84.7425 69.4066 85.8041 65.25 85.9007 60.9H82.6191ZM79.8201 49.7833C81.6539 53.07 82.6191 56.6467 82.6191 60.4167H85.9007C85.9007 56.1633 84.7425 51.91 82.6191 48.14L79.8201 49.7833ZM78.6618 42.92L76.3454 45.24C77.6002 46.4967 78.6618 47.9467 79.5305 49.3967L82.3295 47.7533C81.3644 46.0133 80.1096 44.37 78.6618 42.92ZM80.2061 40.6L81.4608 39.3433C79.7235 37.6033 77.7932 36.1533 75.6698 34.8967L74.8011 36.4433C76.828 37.6033 78.6618 38.9567 80.2061 40.6ZM78.6618 42.2433L79.9166 40.9867C78.2758 39.44 76.5385 37.99 74.6081 36.9266L73.7394 38.4733C75.4768 39.44 77.1176 40.7933 78.6618 42.2433ZM71.8091 41.6633C73.3534 42.5333 74.7046 43.6933 75.9594 44.8533L78.2758 42.5333C76.828 41.0833 75.1872 39.8267 73.4499 38.7633L71.8091 41.6633ZM74.4151 36.1533L75.2837 34.6067C70.8439 32.0933 65.9215 30.74 60.8061 30.74V32.5766C65.5354 32.5766 70.2648 33.8333 74.4151 36.1533ZM73.2569 38.1833L74.1255 36.6367C70.0718 34.3167 65.4389 33.06 60.8061 33.06V34.8967C65.1494 34.8967 69.4927 35.96 73.2569 38.1833ZM60.8061 38.57C64.5703 38.57 68.1414 39.5367 71.423 41.3733L73.0638 38.57C69.2996 36.4433 65.1494 35.38 60.8061 35.2833V38.57V38.57ZM48.0658 38.57L49.7066 41.3733C52.9882 39.5367 56.5593 38.57 60.3235 38.57V35.2833C55.9802 35.38 51.83 36.4433 48.0658 38.57ZM46.7145 36.1533C50.8648 33.8333 55.4976 32.5767 60.3235 32.48V30.6433C55.2081 30.6433 50.2857 31.9966 45.8459 34.51L46.7145 36.1533ZM46.3284 36.4433L45.4598 34.8967C43.3364 36.1533 41.4061 37.6033 39.6687 39.3433L40.9235 40.6C42.4678 38.9567 44.3016 37.6033 46.3284 36.4433ZM49.3205 41.6633L47.6797 38.86C45.9424 39.9233 44.3016 41.18 42.8538 42.63L45.1702 44.95C46.425 43.5967 47.7762 42.5333 49.3205 41.6633ZM80.5922 80.4266L81.8469 81.6833C83.5843 79.9433 85.032 78.01 86.2867 75.8833L84.7425 75.0133C83.5843 76.9467 82.233 78.7833 80.5922 80.4266ZM80.2061 80.04C81.7504 78.3967 83.1982 76.6567 84.2599 74.7233L82.7156 73.8533C81.6539 75.69 80.3992 77.3333 78.8549 78.7833L80.2061 80.04ZM74.8011 84.8733L75.6698 86.42C77.7932 85.1633 79.7235 83.7133 81.4608 81.9733L80.2061 80.7167C78.6618 82.36 76.828 83.7133 74.8011 84.8733ZM74.6081 84.4867C76.5385 83.3267 78.3723 81.9733 79.9166 80.4266L78.6618 79.17C77.2141 80.62 75.4768 81.8767 73.7394 83.0367L74.6081 84.4867ZM74.1255 84.7766L73.2569 83.23C69.4927 85.3567 65.1494 86.5167 60.8061 86.6133V88.45C65.5354 88.2567 70.0718 87.0966 74.1255 84.7766ZM60.8061 90.5766C65.9215 90.5766 70.8439 89.2233 75.2837 86.71L74.4151 85.1633C70.2648 87.4833 65.632 88.74 60.8061 88.8367V90.5766ZM60.3235 88.3533V86.5167C55.9802 86.5167 51.6369 85.3567 47.8727 83.1333L47.0041 84.68C51.0578 87.0967 55.5941 88.2567 60.3235 88.3533ZM45.8459 86.71C50.2857 89.2233 55.2081 90.5766 60.3235 90.5766V88.74C55.5941 88.74 50.8648 87.4833 46.7145 85.0667L45.8459 86.71ZM46.5215 84.4867L47.3901 82.94C45.5563 81.8767 43.9155 80.62 42.4677 79.0733L41.213 80.33C42.8538 81.9733 44.5911 83.3267 46.5215 84.4867ZM32.816 88.8367L28.9553 92.7033C31.6578 95.3133 34.6498 97.6333 37.8349 99.5667L40.5374 94.9266C37.7384 93.1866 35.1324 91.1567 32.816 88.8367ZM60.8061 97.73C67.1762 97.73 73.3534 96.0867 78.8549 92.8967L77.2141 90.0933C72.1952 92.9933 66.5971 94.4433 60.8061 94.54V97.73V97.73ZM42.2747 92.8967C47.7762 96.0867 53.9533 97.73 60.3235 97.73V94.4433C54.5324 94.4433 48.9344 92.8967 43.9155 89.9967L42.2747 92.8967ZM86.9624 75.69L89.4718 77.14C92.2708 72.21 93.7186 66.6033 93.8151 60.9H90.9196C90.9196 66.12 89.5683 71.1467 86.9624 75.69Z" fill="#FAA41A"/>
<path d="M296.116 63.8965H300.073L312.235 25.0365L324.299 63.8965H328.256L340.707 20.7832H337.233L326.133 59.5465L314.068 20.7832H310.208L298.239 59.5465L287.14 20.7832H283.665L296.116 63.8965ZM357.887 64.5732C366.767 64.5732 374.006 57.6132 374.006 48.5265C374.006 39.4399 366.767 32.4799 357.887 32.4799C348.911 32.4799 341.672 39.4399 341.672 48.5265C341.672 57.6132 348.911 64.5732 357.887 64.5732ZM357.887 61.6732C350.552 61.6732 344.857 55.8732 344.857 48.5265C344.857 41.1799 350.552 35.3799 357.887 35.3799C365.223 35.3799 370.917 41.1799 370.917 48.5265C370.821 55.8732 365.126 61.6732 357.887 61.6732ZM384.43 39.1499V33.0599H381.341V63.8965H384.43V46.7865C384.43 38.8599 389.449 35.6699 394.661 35.6699V32.6732C390.51 32.6732 386.553 34.2199 384.43 39.1499ZM424.485 63.8965L407.304 47.8499L423.809 33.0599H419.466L404.023 47.0765V20.7832H400.934V63.8965H404.023V48.7199L420.334 63.8965H424.485ZM430.276 41.1799C430.276 37.5065 433.654 35.3799 437.611 35.3799C440.989 35.3799 444.174 36.8299 445.525 40.0199L448.131 38.5699C446.491 34.7999 442.63 32.3832 437.707 32.3832C431.434 32.3832 427.283 36.2499 427.283 41.1799C427.283 52.2965 445.911 47.4632 445.911 55.8732C445.911 59.7399 442.244 61.6732 437.997 61.6732C433.364 61.6732 430.082 59.5465 428.924 56.2598L426.318 57.8065C427.766 61.7699 431.82 64.6699 437.997 64.6699C444.56 64.6699 449 60.9965 449 55.8732C448.903 44.5632 430.276 49.3965 430.276 41.1799Z" fill="#FAA41A"/>
<path d="M159.544 20.7832H142.267V63.8965H159.544C171.415 63.8965 180.488 54.5199 180.488 42.3399C180.392 30.1599 171.415 20.7832 159.544 20.7832ZM159.544 54.4232H152.112V30.2565H159.447C166.203 30.2565 170.933 34.8965 170.933 42.3399C170.933 49.7832 166.3 54.4232 159.544 54.4232ZM207.996 33.0599V35.9599C205.969 33.6399 202.977 32.1899 198.826 32.1899C190.719 32.1899 184.156 39.2465 184.156 48.4299C184.156 57.6132 190.815 64.6699 198.826 64.6699C202.977 64.6699 205.969 63.2199 207.996 60.8999V63.7999H217.261V32.9632H207.996V33.0599ZM200.66 56.0665C196.413 56.0665 193.325 53.1665 193.325 48.5265C193.325 43.8865 196.413 40.9865 200.66 40.9865C204.907 40.9865 207.996 43.8865 207.996 48.5265C207.996 53.1665 204.907 56.0665 200.66 56.0665ZM242.066 41.9532V33.0599H235.696V24.4565L226.43 27.2599V33.1565H221.508V42.0499H226.43V52.9732C226.43 61.5765 229.905 65.2498 241.97 63.9932V55.4865C237.916 55.7765 235.6 55.4865 235.6 52.8765V41.9532H242.066ZM268.995 33.0599V35.9599C266.968 33.6399 263.976 32.1899 259.826 32.1899C251.718 32.1899 245.155 39.2465 245.155 48.4299C245.155 57.6132 251.815 64.6699 259.826 64.6699C263.976 64.6699 266.968 63.2199 268.995 60.8999V63.7999H278.26V32.9632H268.995V33.0599ZM261.659 56.0665C257.413 56.0665 254.324 53.1665 254.324 48.5265C254.324 43.8865 257.413 40.9865 261.659 40.9865C265.906 40.9865 268.995 43.8865 268.995 48.5265C268.995 53.1665 265.906 56.0665 261.659 56.0665Z" fill="white"/>
<path d="M442.919 91.7376V89.031H448.324V85.7443H442.919V83.231H448.807V79.9443H439.445V94.9276H448.903V91.641H442.919V91.7376ZM429.021 91.7376V80.041H425.546V95.0243H434.329V91.7376H429.021ZM414.929 87.0976H412.709V83.231H414.929C415.991 83.231 416.763 84.101 416.763 85.1643C416.763 86.2276 415.991 87.0976 414.929 87.0976ZM414.929 79.9443H409.235V94.9276H412.709V90.2876H414.929C417.921 90.2876 420.141 87.9676 420.141 85.1643C420.238 82.2643 417.921 79.9443 414.929 79.9443ZM403.057 79.9443H399.583L395.529 86.6143L391.475 79.9443H388.001V94.9276H391.475V86.2276L395.336 92.6076H395.722L399.583 86.2276V94.9276H403.057V79.9443V79.9443ZM378.349 79.9443V94.9276H381.824V79.9443H378.349ZM367.539 95.3143C370.821 95.3143 373.137 93.5743 373.137 90.6743C373.137 87.4843 370.628 86.711 368.311 86.0343C365.995 85.3576 365.609 84.8743 365.609 84.1976C365.609 83.6176 366.188 83.0376 367.249 83.0376C368.601 83.0376 369.373 83.7143 369.855 84.7776L372.751 83.0376C371.689 80.8143 369.759 79.6543 367.249 79.6543C364.643 79.6543 362.231 81.2976 362.231 84.1976C362.231 87.0976 364.45 88.161 366.67 88.741C368.89 89.321 369.759 89.7076 369.759 90.6743C369.759 91.2543 369.373 91.931 367.732 91.931C365.995 91.931 365.126 91.061 364.547 89.8043L361.555 91.5443C362.424 93.7676 364.45 95.3143 367.539 95.3143ZM343.699 91.7376V89.031H349.104V85.7443H343.699V83.231H349.587V79.9443H340.225V94.9276H349.683V91.641H343.699V91.7376ZM327.388 91.7376H324.782V83.3276H327.388C329.704 83.3276 331.345 84.971 331.345 87.581C331.345 90.0943 329.704 91.7376 327.388 91.7376ZM327.388 79.9443H321.404V94.9276H327.388C331.538 94.9276 334.723 91.641 334.723 87.3876C334.627 83.231 331.538 79.9443 327.388 79.9443ZM307.409 89.4176L309.146 83.9076L310.883 89.4176H307.409ZM312.717 95.0243H316.481L311.366 80.041H307.022L301.907 95.0243H305.671L306.443 92.7043H312.041L312.717 95.0243ZM296.888 79.9443H293.413L289.36 86.6143L285.306 79.9443H281.831V94.9276H285.306V86.2276L289.167 92.6076H289.553L293.413 86.2276V94.9276H296.888V79.9443ZM260.887 89.4176L262.624 83.9076L264.362 89.4176H260.887ZM266.196 95.0243H269.96L264.844 80.041H260.501L255.386 95.0243H259.15L259.922 92.7043H265.52L266.196 95.0243ZM252.587 79.9443H241.487V83.231H245.348V94.9276H248.822V83.231H252.683V79.9443H252.587ZM229.519 89.4176L231.256 83.9076L232.993 89.4176H229.519ZM234.827 95.0243H238.591L233.476 80.041H229.133L224.017 95.0243H227.782L228.554 92.7043H234.152L234.827 95.0243ZM213.014 91.7376H210.408V83.3276H213.014C215.331 83.3276 216.972 84.971 216.972 87.581C216.972 90.0943 215.331 91.7376 213.014 91.7376ZM213.014 79.9443H207.03V94.9276H213.014C217.165 94.9276 220.35 91.641 220.35 87.3876C220.253 83.231 217.165 79.9443 213.014 79.9443ZM189.657 91.7376H186.762V88.8376H189.657C190.526 88.8376 191.105 89.4176 191.105 90.2876C191.105 91.1576 190.526 91.7376 189.657 91.7376ZM189.271 83.231C190.043 83.231 190.622 83.811 190.622 84.5843C190.622 85.3576 190.043 85.9376 189.271 85.9376H186.858V83.231H189.271V83.231ZM192.746 87.1943C193.518 86.5176 194.097 85.4543 194.097 84.2943C194.097 81.6843 191.973 80.041 189.368 80.041H183.48V95.0243H189.754C192.456 95.0243 194.579 93.2843 194.579 90.5776C194.579 89.1276 193.807 87.9676 192.746 87.1943ZM171.801 91.7376V89.031H177.206V85.7443H171.801V83.231H177.689V79.9443H168.327V94.9276H177.785V91.641H171.801V91.7376ZM146.417 95.0243H150.278L152.691 86.131L155.104 95.0243H158.964L163.115 80.041H159.544L156.938 90.5776L154.042 80.041H151.243L148.348 90.5776L145.742 80.041H142.17L146.417 95.0243Z" fill="white"/>
</svg>
